<?xml version="1.0" encoding="UTF-8"?>
<svg width="214px" height="158px" viewBox="0 0 214 158" version="1.1" xmlns="http://www.w3.org/2000/svg" xmlns:xlink="http://www.w3.org/1999/xlink">
    <!-- Generator: Sketch 52.2 (67145) - http://www.bohemiancoding.com/sketch -->
    <title>Page 1</title>
    <desc>Created with Sketch.</desc>
    <defs>
        <polygon id="path-1" points="0 0 215 0 215 158 0 158"></polygon>
    </defs>
    <g id="HOME" stroke="none" stroke-width="1" fill="none" fill-rule="evenodd">
        <g id="MacBookPro" transform="translate(-734.000000, -89.000000)">
            <g id="Page-1" transform="translate(733.000000, 89.000000)">
                <mask id="mask-2" fill="white">
                    <use xlink:href="#path-1"></use>
                </mask>
                <g id="Clip-2"></g>
                <path d="M1.06518518,63.4669612 L9.93036994,63.4669612 L9.93036994,61.1523631 L1.06518518,61.1523631 L1.06518518,63.4669612 Z M1.06518518,67.9075539 L9.93036994,67.9075539 L9.93036994,65.5613703 L1.06518518,65.5613703 L1.06518518,67.9075539 Z M1.00022713,121.095365 L42.3655626,121.095365 C41.8159175,120.301412 41.2787643,119.499052 40.7588728,118.685556 L1.00022713,118.685556 L1.00022713,121.095365 Z M214.987054,127.565833 L172.70481,127.565833 C172.031382,128.348424 171.33842,129.115564 170.635011,129.872932 L214.987054,129.872932 L214.987054,127.565833 Z M1.06518518,123.08502 L1.06518518,125.42575 L45.5939325,125.42575 C44.9775124,124.655429 44.3724485,123.877155 43.7855548,123.08502 L1.06518518,123.08502 Z M174.473895,125.42575 L214.976833,125.42575 L214.976833,123.08502 L176.282955,123.08502 C175.695606,123.877155 175.090997,124.655429 174.473895,125.42575 Z M1.06518518,72.3133799 L9.93036994,72.3133799 L9.93036994,69.9451547 L1.06518518,69.9451547 L1.06518518,72.3133799 Z M1.06518518,98.8867211 L9.93036994,98.8867211 L9.93036994,96.5459911 L1.06518518,96.5459911 L1.06518518,98.8867211 Z M1.06518518,76.7535182 L9.93036994,76.7535182 L9.93036994,74.3986997 L1.06518518,74.3986997 L1.06518518,76.7535182 Z M214.988871,65.5613703 L194.046712,65.5613703 L194.881627,67.9075539 L214.988871,67.9075539 L214.988871,65.5613703 Z M1.06518518,107.760181 L9.93036994,107.760181 L9.93036994,105.39241 L1.06518518,105.39241 L1.06518518,107.760181 Z M1.06518518,103.327541 L9.93036994,103.327541 L9.93036994,100.986357 L1.06518518,100.986357 L1.06518518,103.327541 Z M1.06518518,81.1682063 L9.93036994,81.1682063 L9.93036994,78.8531537 L1.06518518,78.8531537 L1.06518518,81.1682063 Z M1.06518518,94.4463556 L9.93036994,94.4463556 L9.93036994,92.1351659 L1.06518518,92.1351659 L1.06518518,94.4463556 Z M1.06518518,85.5835761 L9.93036994,85.5835761 L9.93036994,83.2585252 L1.06518518,83.2585252 L1.06518518,85.5835761 Z M1.06518518,90.0405296 L9.93036994,90.0405296 L9.93036994,87.6623061 L1.06518518,87.6623061 L1.06518518,90.0405296 Z M154.576516,143.159262 L214.988871,143.159262 L214.988871,140.778085 L158.145575,140.778085 C156.97951,141.601578 155.789142,142.395077 154.576516,143.159262 Z M1.06518518,116.578877 L7.12309172,116.578877 L8.01274453,114.272913 L1.06518518,114.272913 L1.06518518,116.578877 Z M160.922191,138.726168 L215,138.726168 L215,136.387938 L163.811008,136.387938 C162.866618,137.188481 161.904739,137.967891 160.922191,138.726168 Z M146.590991,147.591447 L214.976833,147.591447 L214.976833,145.217768 L151.124654,145.217768 C149.642656,146.053078 148.13136,146.84544 146.590991,147.591447 Z M214.999546,43.4152152 L186.162939,43.4152152 L186.995583,45.7534456 L214.999546,45.7534456 L214.999546,43.4152152 Z M166.176753,134.304436 L215,134.304436 L215,131.967569 L168.61745,131.967569 C167.820691,132.762431 167.007126,133.541614 166.176753,134.304436 Z M135.506784,152 L214.976833,152 L214.976833,149.727213 L141.801129,149.727213 C139.745411,150.565931 137.645403,151.323299 135.506784,152 Z M213.493473,116.578877 L215,116.578877 L215,114.272913 L212.23633,114.272913 L213.493473,116.578877 Z M195.607295,69.9451547 L196.450614,72.3136072 L215,72.3136072 L215,69.9451547 L195.607295,69.9451547 Z M75.0267457,8 L1.06518518,8 L1.06518518,10.38754 L70.2455148,10.38754 C71.8083693,9.54382288 73.4018858,8.74555238 75.0267457,8 Z M1.06518518,149.727213 L1.06518518,152 L84.5610438,152 C82.4224248,151.323299 80.3224171,150.565931 78.2669262,149.727213 L1.06518518,149.727213 Z M66.6376172,12.4539995 L1.06518518,12.4539995 L1.06518518,14.7597355 L63.048571,14.7597355 C64.22145,13.9605561 65.4195401,13.1936438 66.6376172,12.4539995 Z M214.988871,10.38754 L214.988871,8 L145.041082,8 C146.665942,8.74555238 148.259913,9.54382288 149.822313,10.38754 L214.988871,10.38754 Z M1.06518518,145.217768 L1.06518518,147.591447 L73.4766103,147.591447 C71.9362413,146.84544 70.4253986,146.053078 68.9431739,145.217768 L1.06518518,145.217768 Z M61.9217986,140.778085 L1.00022713,140.778085 L1.00022713,143.159262 L65.4917661,143.159262 C64.2786858,142.395077 63.088091,141.601578 61.9217986,140.778085 Z M54.7609679,21.2377018 L1,21.2377018 L1,23.6129712 L52.2094336,23.6129712 C53.0416235,22.8033391 53.892892,22.0116583 54.7609679,21.2377018 Z M60.1617987,16.8236954 L1.06518518,16.8236954 L1.06518518,19.1998738 L57.133981,19.1998738 C58.1228879,18.3852425 59.1322362,17.59288 60.1617987,16.8236954 Z M1.06518518,32.4657525 L44.37154,32.4657525 C44.9759225,31.6706632 45.5914342,30.8837544 46.2257973,30.1116157 L1.06518518,30.1116157 L1.06518518,32.4657525 Z M1.09698283,134.304436 L53.891075,134.304436 C53.060475,133.541614 52.2469094,132.762431 51.4506054,131.967569 L1.09698283,131.967569 L1.09698283,134.304436 Z M177.702038,121.095365 L214.966158,121.095365 L214.966158,118.685556 L179.309637,118.685556 C178.788836,119.499052 178.252592,120.301412 177.702038,121.095365 Z M56.2575015,136.387938 L1.02975352,136.387938 L1.02975352,138.726168 L59.1454095,138.726168 C58.1635435,137.967891 57.2009832,137.188481 56.2575015,136.387938 Z M214.976833,23.6129712 L214.976833,21.2377018 L165.30686,21.2377018 C166.174936,22.0116583 167.02575,22.8033391 167.858394,23.6129712 L214.976833,23.6129712 Z M214.988871,12.4539995 L153.430665,12.4539995 C154.647834,13.1936438 155.846378,13.9605561 157.019257,14.7597355 L214.988871,14.7597355 L214.988871,12.4539995 Z M9.73867554,109.79869 L1.06518518,109.79869 L1.06518518,112.176232 L8.82154047,112.176232 L9.73867554,109.79869 Z M198.03073,76.7535182 L214.976833,76.7535182 L214.976833,74.3986997 L197.192635,74.3986997 L198.03073,76.7535182 Z M1.00022713,129.872932 L49.4330445,129.872932 C48.7291808,129.115564 48.0366734,128.348424 47.3634718,127.565833 L1.00022713,127.565833 L1.00022713,129.872932 Z M206.657432,100.986357 L207.491439,103.327541 L214.976833,103.327541 L214.976833,100.986357 L206.657432,100.986357 Z M214.988871,112.176232 L214.988871,109.79869 L209.797223,109.79869 L211.09275,112.176232 L214.988871,112.176232 Z M214.988871,105.39241 L208.226419,105.39241 L209.069738,107.760181 L214.988871,107.760181 L214.988871,105.39241 Z M198.77911,78.8531537 L199.601988,81.1682063 L214.966158,81.1682063 L214.966158,78.8531537 L198.77911,78.8531537 Z M205.90996,98.8867211 L214.988871,98.8867211 L214.988871,96.5459911 L205.076862,96.5459911 L205.90996,98.8867211 Z M214.976833,85.5835761 L214.976833,83.2585252 L200.34628,83.2585252 L201.174609,85.5835761 L214.976833,85.5835761 Z M202.760857,90.0405296 L214.978196,90.0405296 L214.978196,87.6623061 L201.914813,87.6623061 L202.760857,90.0405296 Z M203.506512,92.1351659 L204.329844,94.4463556 L214.966158,94.4463556 L214.966158,92.1351659 L203.506512,92.1351659 Z M214.985691,19.1998738 L214.985691,16.8236954 L159.906256,16.8236954 C160.936046,17.59288 161.944713,18.3852425 162.933393,19.1998738 L214.985691,19.1998738 Z M214.988871,28.0469742 L214.988871,25.7064714 L169.935916,25.7064714 C170.666808,26.4722476 171.379757,27.2534756 172.078397,28.0469742 L214.988871,28.0469742 Z M1.06518518,41.3333039 L8.34253159,41.3333039 L7.52601336,38.9914377 L1.06518518,38.9914377 L1.06518518,41.3333039 Z M1.06518518,36.8931656 L41.2451497,36.8931656 C41.7607259,36.1060296 42.286977,35.3268467 42.8307168,34.5594799 L1.06518518,34.5594799 L1.06518518,36.8931656 Z M1.02975352,45.7534456 L9.8838091,45.7534456 L9.06865363,43.4152152 L1.02975352,43.4152152 L1.02975352,45.7534456 Z M1.00022713,59.0265958 L9.93014281,59.0265958 L9.93014281,56.6681416 L1.00022713,56.6681416 L1.00022713,59.0265958 Z M1.00022713,50.1854034 L9.93014281,50.1854034 L9.93014281,47.7676414 L1.00022713,47.7676414 L1.00022713,50.1854034 Z M1.01885146,54.593729 L9.93036994,54.593729 L9.93036994,52.2604977 L1.01885146,52.2604977 L1.01885146,54.593729 Z M173.841804,30.1116157 C174.476621,30.8837544 175.091451,31.6706632 175.696969,32.4657525 L214.966158,32.4657525 L214.966158,30.1116157 L173.841804,30.1116157 Z M214.976833,63.4669612 L214.976833,61.1523631 L192.47727,61.1523631 L193.301057,63.4669612 L214.976833,63.4669612 Z M214.988871,56.6681416 L190.88012,56.6681416 L191.720032,59.0265958 L214.988871,59.0265958 L214.988871,56.6681416 Z M190.14196,54.593729 L214.978196,54.593729 L214.978196,52.2604977 L189.311133,52.2604977 L190.14196,54.593729 Z M50.1319114,25.7064714 L1.06518518,25.7064714 L1.06518518,28.0469742 L47.9894312,28.0469742 C48.6882981,27.2534756 49.4010197,26.4722476 50.1319114,25.7064714 Z M188.572973,50.1854034 L214.964795,50.1854034 L214.964795,47.7676414 L187.711938,47.7676414 L188.572973,50.1854034 Z M214.987054,41.3333039 L214.987054,38.9914377 L184.588501,38.9914377 L185.421599,41.3333039 L214.987054,41.3333039 Z M214.976833,36.8931656 L214.976833,34.5594799 L177.237111,34.5594799 C177.780624,35.3268467 178.307102,36.1060296 178.822678,36.8931656 L214.976833,36.8931656 Z" id="Fill-1" fill="#FEFEFE" mask="url(#mask-2)"></path>
                <path d="M148.975286,23.985794 C148.975286,23.985794 141.559013,16.8719195 135.568851,13.7418419 C135.568851,13.7418419 137.707903,12.6037758 138.563705,11.0386239 C138.563705,11.0386239 147.692263,15.3067676 154.394914,20.4288567 C154.252734,20.4288567 151.970594,22.5631548 148.975286,23.985794 M132.074892,28.628995 C129.935159,23.9339917 124.943206,16.9619514 124.943206,16.9619514 C128.794316,16.2505187 132.074892,15.2547391 132.074892,15.2547391 C136.923758,17.9579571 144.482891,25.641204 144.482891,25.641204 C138.777996,27.6329893 131.932258,28.4867085 132.074892,28.628995 M112.107305,30.4594921 C112.107305,27.6139876 111.39391,17.9389554 111.39391,17.9389554 C115.672695,17.7968951 120.664421,17.5120958 120.521788,17.3698093 C123.517096,21.3536061 127.225119,29.3211998 127.225119,29.3211998 C122.661293,30.0326325 111.964445,30.3172056 112.107305,30.4594921 M110.992767,7.62374695 C111.50321,7.69500333 112.813444,7.55249058 112.813444,7.55249058 C113.177852,7.83728987 117.838732,13.3862386 117.838732,13.3862386 C115.216902,13.5995553 111.284384,13.7418419 111.284384,13.6705855 C111.356948,12.959379 110.92043,7.69500333 110.992767,7.62374695 M101.551957,5.06281548 C101.551957,5.06281548 105.403067,3.92452318 110.039003,3.92452318 C114.674259,3.92452318 118.311305,5.20510202 118.311305,5.20510202 C118.311305,5.20510202 116.813764,5.91653471 110.110207,5.91653471 C103.406195,5.91653471 101.551957,5.06281548 101.551957,5.06281548 M108.684096,13.6705855 C108.684096,13.7418419 104.832306,13.5995553 102.265126,13.3862386 C102.265126,13.3862386 106.829178,7.83728987 107.185649,7.55249058 C107.185649,7.55249058 108.470259,7.69500333 108.969364,7.62374695 C109.040794,7.69500333 108.612893,12.959379 108.684096,13.6705855 M107.827614,30.4594921 C107.970474,30.3172056 97.2731723,30.0326325 92.709347,29.3211998 C92.709347,29.3211998 96.4175968,21.3536061 99.412678,17.3698093 C99.2700443,17.5120958 104.261998,17.7968951 108.541236,17.9389554 C108.541236,17.9389554 107.827614,27.6139876 107.827614,30.4594921 M88.1452948,28.6097671 C88.2879286,28.4674806 81.4419638,27.6139876 75.7368419,25.621976 C75.7368419,25.621976 83.2959753,17.9389554 88.1452948,15.2357374 C88.1452948,15.2357374 91.4256435,16.2317432 95.2765271,16.9431759 C95.2765271,16.9431759 90.2848006,23.9147638 88.1452948,28.6097671 M71.3156503,23.9147638 C68.3203423,22.4918984 66.0384296,20.3576004 65.8957959,20.3576004 C72.599127,15.2357374 81.7270044,10.9673675 81.7270044,10.9673675 C82.5828067,12.5325194 84.7223124,13.6705855 84.7223124,13.6705855 C78.7319232,16.8006631 71.3156503,23.9147638 71.3156503,23.9147638 M102.6928,7.19688734 C102.6928,7.12585718 103.97673,7.33940009 103.97673,7.33940009 C103.97673,7.33940009 100.910219,10.0426181 98.414242,13.0304092 C98.414242,13.0304092 96.0608991,12.8168663 92.8517539,12.2479463 C92.8517539,12.2479463 97.4872363,9.54450211 102.6928,7.19688734 M98.9133467,5.7029918 C99.1539418,6.32733336 99.2970291,6.40017321 99.3866003,6.38185015 C99.4054216,6.37438519 99.4235626,6.36714645 99.4421572,6.35990771 C99.4584841,6.35108549 99.4723166,6.34316811 99.4841083,6.34316811 C99.470049,6.34882338 99.4562165,6.35425244 99.4421572,6.35990771 C99.4262838,6.3682775 99.4081428,6.37732593 99.3866003,6.38185015 C93.0939364,8.8579526 88.8584634,11.2519406 88.8584634,11.2519406 C86.9327949,10.7538246 85.5781147,9.54450211 85.5781147,9.54450211 C91.496847,7.12585718 98.9133467,5.7029918 98.9133467,5.7029918 M127.296322,12.2479463 C124.08763,12.8168663 121.734061,13.0304092 121.734061,13.0304092 C119.238311,10.0426181 116.171799,7.33940009 116.171799,7.33940009 C116.171799,7.33940009 117.455503,7.12585718 117.455503,7.19688734 C122.661293,9.54450211 127.296322,12.2479463 127.296322,12.2479463 M121.30616,5.7029918 C121.30616,5.7029918 128.722886,7.12585718 134.641845,9.54450211 C134.641845,9.54450211 133.286938,10.7538246 131.36127,11.2519406 C131.36127,11.2519406 127.125797,8.8579526 120.833133,6.38185015 C120.811817,6.37732593 120.793449,6.3682775 120.777576,6.35990771 C120.763517,6.35425244 120.749911,6.34882338 120.735852,6.34316811 C120.747643,6.34316811 120.761476,6.35108549 120.777576,6.35990771 C120.79617,6.36714645 120.814311,6.37438519 120.833133,6.38185015 C120.922704,6.40017321 121.065791,6.32710715 121.30616,5.7029918 M109.825166,3 C63.4712495,3 42,37.9563413 42,37.9563413 L47.9250816,38 C54.9136801,29.0366267 62.3301798,23.3456177 62.1875461,23.2033311 C64.0417844,25.4796895 67.7500342,27.6139876 67.7500342,27.6139876 C64.4694587,31.0284121 61.0464763,37.7154269 61.0464763,37.7154269 L66.6087377,37.7154269 C68.3203423,34.443289 72.1712258,29.6057729 72.1712258,29.6057729 C76.7352779,31.5975582 86.0060159,33.3049967 86.0060159,33.3049967 C84.8647194,35.296782 84.1517776,37.8579397 84.1517776,37.8579397 L89.5714052,37.8579397 C89.8566727,36.8619339 90.5698412,33.8741428 90.5698412,34.0162032 C95.5617945,35.0124351 107.542119,35.296782 107.542119,35.296782 L107.542119,37.7154269 L112.534753,37.7154269 L112.392346,35.1547217 C121.234956,35.1547217 129.364851,34.0162032 129.364851,34.0162032 L130.505694,37.8579397 C130.505694,37.8579397 135.782688,37.7154269 135.925322,37.8579397 C135.497421,35.8661544 134.07131,33.3049967 134.07131,33.3049967 C140.061473,32.4512774 147.763467,29.3211998 147.763467,29.3211998 C151.328856,33.4472832 153.468362,37.8579397 153.468362,37.8579397 C153.468362,37.8579397 159.03085,37.7154269 159.03085,37.8579397 C156.60585,32.4512774 152.184431,27.471701 152.041798,27.471701 C155.179739,25.9065491 157.462106,23.0610446 157.462106,22.918758 C162.453605,26.0488357 172.294651,38 172.294651,38 L178,38 C178,38 156.178175,3 109.825166,3" id="Fill-3" fill="#FEFEFE" mask="url(#mask-2)"></path>
                <path d="M138.434031,145.961602 C137.596899,144.39645 135.504525,143.258384 135.504525,143.258384 C141.36308,140.128307 148.615943,133.014206 148.615943,133.014206 C151.544992,134.436845 153.77666,136.571143 153.915498,136.571143 C147.360245,141.693459 138.434031,145.961602 138.434031,145.961602 Z M121.556888,151.296782 C121.321388,150.671988 121.18141,150.599601 121.093639,150.61815 C121.0754,150.625389 121.057846,150.632627 121.039608,150.640092 C121.023878,150.648688 121.010199,150.656606 120.998572,150.656606 C121.012479,150.65095 121.025929,150.645521 121.039608,150.640092 C121.055338,150.631496 121.072893,150.622448 121.093639,150.61815 C127.248336,148.142047 131.390451,145.748512 131.390451,145.748512 C133.272858,146.246175 134.598544,147.455498 134.598544,147.455498 C128.809523,149.874143 121.556888,151.296782 121.556888,151.296782 Z M110.538528,153.075703 C106.004292,153.075703 102.238339,151.936958 102.238339,151.936958 C102.238339,151.936958 104.051896,151.083692 110.607605,151.083692 C117.163086,151.083692 118.628067,151.794672 118.628067,151.794672 C118.628067,151.794672 115.071168,153.075703 110.538528,153.075703 Z M99.6580944,151.296782 C99.6580944,151.296782 92.4052318,149.874143 86.616894,147.455498 C86.616894,147.455498 87.9418967,146.246175 89.8247593,145.748512 C89.8247593,145.748512 93.9671027,148.142047 100.121116,150.61815 C100.141862,150.622448 100.159416,150.631496 100.174918,150.640092 C100.188825,150.645521 100.202276,150.65095 100.215954,150.656606 C100.204555,150.656606 100.190877,150.648688 100.174918,150.640092 C100.156908,150.632627 100.139126,150.625389 100.121116,150.61815 C100.033573,150.599601 99.8938227,150.672214 99.6580944,151.296782 Z M82.8507127,146.03218 C82.8507127,146.03218 73.9240425,141.764036 67.3687898,136.642173 C67.5083117,136.642173 69.7399793,134.508328 72.6690287,133.085462 C72.6690287,133.085462 79.9218913,140.199111 85.7799901,143.329188 C85.7799901,143.329188 83.6878445,144.467481 82.8507127,146.03218 Z M89.1273775,128.390459 C91.2195231,133.085462 96.1014241,140.056824 96.1014241,140.056824 C92.3354708,140.768483 89.1273775,141.764036 89.1273775,141.764036 C84.3847704,139.061045 76.9928419,131.37825 76.9928419,131.37825 C82.5718968,129.386239 89.2668994,128.532746 89.1273775,128.390459 Z M108.37571,126.540734 C108.37571,129.386239 109.073547,139.061045 109.073547,139.061045 C104.888344,139.203557 100.007127,139.48813 100.146193,139.630417 C97.2173719,135.646168 93.5904846,127.6788 93.5904846,127.6788 C98.0540477,126.967594 108.51546,126.683021 108.37571,126.540734 Z M104.609528,149.661052 C104.609528,149.661052 103.354287,149.874143 103.354287,149.803113 C98.2633307,147.455498 93.7302346,144.751827 93.7302346,144.751827 C96.8685669,144.18336 99.1702235,143.969365 99.1702235,143.969365 C101.610946,146.957156 104.609528,149.661052 104.609528,149.661052 Z M109.492113,149.376253 C109.003558,149.30477 107.747633,149.447057 107.747633,149.447057 C107.399284,149.162936 102.936177,143.613988 102.936177,143.613988 C105.44666,143.400897 109.212841,143.258384 109.212841,143.329188 C109.143764,144.041073 109.561874,149.30477 109.492113,149.376253 Z M111.755926,143.329188 C111.755926,143.258384 115.602355,143.400897 118.165957,143.613988 C118.165957,143.613988 113.607783,149.162936 113.251911,149.447057 C113.251911,149.447057 111.969996,149.30477 111.471182,149.376253 C111.399598,149.30477 111.82751,144.041073 111.755926,143.329188 Z M112.560457,126.540734 C112.421163,126.683021 122.881891,126.967594 127.344998,127.6788 C127.344998,127.6788 123.718795,135.646168 120.789517,139.630417 C120.929495,139.48813 116.047366,139.203557 111.863531,139.061045 C111.863531,139.061045 112.560457,129.386239 112.560457,126.540734 Z M127.414531,144.751827 C127.414531,144.751827 122.881891,147.455498 117.790479,149.803113 C117.790479,149.874143 116.535693,149.661052 116.535693,149.661052 C116.535693,149.661052 119.534731,146.957156 121.975682,143.969365 C121.975682,143.969365 124.276654,144.18336 127.414531,144.751827 Z M132.088061,128.370553 C131.947855,128.512839 138.642858,129.367011 144.222141,131.358344 C144.222141,131.358344 136.829756,139.042495 132.088061,141.745487 C132.088061,141.745487 128.879512,140.749255 125.11333,140.038049 C125.11333,140.038049 129.995231,133.065556 132.088061,128.370553 Z M171.420717,119 C171.420717,119 161.796437,130.951391 156.914764,134.081242 C156.914764,133.939182 154.683096,131.093451 151.614753,129.528299 C151.754275,129.528299 156.07786,124.548949 158.449278,119.141834 C158.449278,119.284347 153.009517,119.141834 153.009517,119.141834 C153.009517,119.141834 150.917143,123.552717 147.43069,127.6788 C147.43069,127.6788 139.898099,124.548949 134.040229,123.695003 C134.040229,123.695003 135.43522,121.134072 135.853786,119.141834 C135.714264,119.284347 130.553319,119.141834 130.553319,119.141834 L129.437371,122.983797 C129.437371,122.983797 121.487127,121.845505 112.839045,121.845505 L112.979251,119.284347 L108.096438,119.284347 L108.096438,121.703218 C108.096438,121.703218 96.38024,121.987791 91.498567,122.983797 C91.498567,123.125857 90.8011851,120.138066 90.5223692,119.141834 L85.2216743,119.141834 C85.2216743,119.141834 85.9197401,121.703218 87.0352319,123.695003 C87.0352319,123.695003 77.9690397,125.402668 73.5059325,127.394227 C73.5059325,127.394227 69.7399793,122.556711 68.0661716,119.284347 L62.6261827,119.284347 C62.6261827,119.284347 65.974254,125.971362 69.1816634,129.386239 C69.1816634,129.386239 65.5554601,131.520537 63.7423585,133.796669 C63.8816525,133.654382 56.6287899,127.963599 49.7944932,119 L44,119.043206 C44,119.043206 64.9973723,154 110.328789,154 C155.660206,154 177,119 177,119 L171.420717,119 Z" id="Fill-4" fill="#FEFEFE" mask="url(#mask-2)"></path>
                <polygon id="Fill-5" fill="#FEFEFE" mask="url(#mask-2)" points="1 158 215 158 215 156 1 156"></polygon>
                <polygon id="Fill-6" fill="#FEFEFE" mask="url(#mask-2)" points="1 2 215 2 215 0 1 0"></polygon>
                <path d="M17,108.198198 C20.2993322,107.906395 22.4384521,107.306401 23.4157408,106.395713 C24.392567,105.454979 24.8798239,103.051817 24.8812114,99.1869101 L24.8812114,54.8133176 C24.8812114,51.1448426 24.392567,48.7901629 23.4157408,47.7504164 C22.4384521,46.6788038 20.2993322,46.0455782 17,45.8507396 L17,44 L41,44 L41,45.8507396 C37.6992802,46.0455782 35.5608541,46.6788038 34.5842592,47.7504164 C33.6065079,48.7901629 33.1190199,51.1448426 33.1190199,54.8133176 L33.1190199,99.1869101 C33.1190199,103.051817 33.6065079,105.454979 34.5842592,106.395713 C35.5608541,107.306401 37.6992802,107.906395 41,108.198198 L41,110 L17,110 L17,108.198198 Z" id="Fill-7" fill="#FEFEFE" mask="url(#mask-2)"></path>
                <path d="M149,110 L149,108.202069 C151.046788,107.91055 152.57473,106.938818 153.586776,105.286874 C154.623107,103.635384 156.384371,99.1502057 158.873064,91.8290693 L175.470024,43 L177.024748,43 L196.847817,99.4083503 C198.169899,103.165638 199.218714,105.497794 199.996983,106.404592 C200.799993,107.279151 202.13297,107.878537 204,108.202069 L204,110 L183.749552,110 L183.749552,108.202069 C186.081638,107.943697 187.583932,107.636058 188.258251,107.279151 C188.931208,106.890231 189.267573,105.966859 189.268935,104.509488 C189.268935,104.023849 189.138656,103.165638 188.879687,101.934626 C188.620264,100.70475 188.258251,99.4094855 187.792288,98.0476988 L184.487422,88.4765945 L163.653669,88.4765945 C161.580326,94.9869706 160.336774,98.971071 159.922332,100.427988 C159.533537,101.8538 159.339935,102.988546 159.339935,103.82973 C159.339935,105.514595 159.883748,106.681127 160.972054,107.32751 C161.645011,107.71643 162.914211,108.007496 164.780787,108.202069 L164.780787,110 L149,110 Z M183.360758,84.4436805 L174.148622,57.0410705 L165.053374,84.4436805 L183.360758,84.4436805 Z" id="Fill-8" fill="#FEFEFE" mask="url(#mask-2)"></path>
                <path d="M59.985336,105.555753 C60.6314736,106.076159 61.9504825,106.335338 63.9425891,106.335338 C70.1506758,106.335338 75.2588332,104.792566 79.2684207,101.705202 C85.4243995,96.9621026 88.5012561,88.8558349 88.502842,77.3854878 C88.502842,67.1504509 85.9672276,59.4500319 80.8978112,54.2837752 C76.5522412,49.8652182 70.7970399,47.6567368 63.632434,47.6553703 C61.8476261,47.6553703 60.6314736,47.8990617 59.985336,48.3864444 C59.3643461,48.8738271 59.054191,49.9458413 59.054191,51.6029425 L59.054191,102.338344 C59.054191,103.964016 59.3643461,105.036713 59.985336,105.555753 Z M44,108.23613 C46.8967446,107.846224 48.7841824,107.197595 49.6645789,106.286599 C50.543616,105.345541 50.9826815,102.989023 50.9838143,99.21955 L50.9838143,54.8198961 C50.9838143,51.1811515 50.5569828,48.8417145 49.7035465,47.8015851 C48.8498836,46.7628223 46.9488525,46.1123713 44,45.8520543 L44,44 L65.4172419,44 C72.6337292,44 78.7373735,45.495855 83.7304405,48.4836932 C92.7319622,53.844903 97.2324965,63.4310832 97.2324965,77.2390453 C97.2324965,82.2103489 96.4178013,86.9375057 94.7881842,91.4216544 C93.1839414,95.905803 90.7532224,99.6916735 87.4939882,102.777216 C85.4243995,104.726519 83.2768755,106.205976 81.0532286,107.212399 C76.9913067,109.097704 71.9993725,110.038991 66.0767463,110.038991 L44,110.038991 L44,108.23613 Z M121.323779,71.2519814 C124.255639,68.7594971 125.722136,66.0046461 125.722136,62.9892503 C125.722136,60.7279311 124.972462,58.901157 123.473795,57.509611 C122.007751,56.118065 120.133453,55.4222921 117.853621,55.4222921 C115.376231,55.4222921 113.455263,56.1330965 112.086639,57.5533388 C110.750412,58.9747199 110.082525,60.8582035 110.082525,63.2067505 C110.082525,65.0330691 110.440256,67.0199508 111.158212,69.1644347 C111.906074,71.2818165 112.866897,73.4695727 114.041137,75.7311196 C117.266841,74.1371049 119.693935,72.6448939 121.323779,71.2519814 Z M114.921307,107.824816 C117.527154,106.897877 120.019496,105.434363 122.39856,103.432905 C119.334617,99.9535848 116.940374,97.0258723 115.214697,94.6479457 C113.518925,92.2709301 110.847831,88.1265829 107.198694,82.2103489 C103.841814,83.9797303 101.268591,85.747973 99.4769865,87.5162157 C96.7401904,90.2423704 95.3717924,93.4019313 95.3717924,96.9964927 C95.3717924,100.301585 96.576617,103.171449 98.9885319,105.607452 C101.398181,108.013619 104.494068,109.216589 108.274608,109.216589 C110.098157,109.216589 112.314101,108.75312 114.921307,107.824816 Z M105.683487,79.1227567 C105.259148,78.3402114 104.770693,77.2681971 104.217444,75.9051198 C103.663288,74.5431812 103.272479,73.4411041 103.04479,72.6000273 C102.783571,71.6733169 102.571288,70.7450123 102.4093,69.8167077 C102.245954,68.8599344 102.165073,67.933224 102.165073,67.0336157 C102.165073,62.8589779 103.59736,59.3944611 106.465785,56.6400656 C109.33353,53.8868088 112.964996,52.5100665 117.36494,52.5087 C121.372035,52.5087 124.662307,53.4802769 127.237116,55.4222921 C129.810339,57.3656737 131.096044,59.9749932 131.097856,63.2500228 C131.097856,67.0766603 129.451474,70.2082081 126.161881,72.6435274 C122.870476,75.0790744 119.334617,77.0356655 115.55657,78.5144393 C118.423182,83.1539127 120.524942,86.4289423 121.860943,88.3427166 C123.229567,90.2555798 125.526392,93.0821718 128.752322,96.8222647 C132.205035,93.0543864 134.599279,89.8360663 135.936639,87.1679876 C137.271053,84.5024141 137.93894,82.3711397 137.940073,80.7757584 C137.940073,79.1530473 137.271053,78.0373053 135.936639,77.4271659 C135.088413,77.0506969 133.622822,76.7896966 131.538281,76.6443928 L131.538281,74.7743464 L153.09055,74.7743464 L153.09055,76.6443928 C150.906098,76.8769245 149.278519,77.2246971 148.203285,77.6881662 C146.444078,78.4707115 144.943598,79.8770611 143.706829,81.9060763 L141.16555,86.0376697 C139.341095,88.9949895 137.809124,91.2563086 136.571901,92.821627 C135.365264,94.3871732 133.541262,96.548055 131.097856,99.3013118 C132.400553,100.663934 133.882002,102.040676 135.545376,103.432905 C139.161889,106.186845 142.778855,107.564043 146.394915,107.564043 C148.544931,107.564043 150.368933,107.100118 151.868507,106.172497 C152.780395,105.593332 154.002211,104.47759 155.534183,102.824132 L157,103.867222 C156.804482,104.563451 156.12051,105.665528 154.947403,107.172543 C153.774749,108.651316 152.650805,109.811697 151.57557,110.65118 C149.880026,111.986244 147.909895,112.926164 145.661553,113.477999 C144.325326,113.826 143.023083,114 141.75233,114 C138.590742,114 135.462683,113.115423 132.368835,111.347408 C130.511982,110.303635 128.03414,108.463196 124.939838,105.824724 C122.007751,108.230892 119.041907,110.072697 116.045251,111.347408 C112.135348,113.086955 107.835316,113.957183 103.142436,113.957183 C97.9282499,113.957183 93.7589404,112.723695 90.6313353,110.259907 C87.535448,107.767878 85.9882973,104.375558 85.9882973,100.084085 C85.9882973,96.0547508 87.3718746,92.5182655 90.1424275,89.47349 C92.943339,86.4004737 96.8530153,83.6037169 101.871683,81.080031 L105.683487,79.1227567 Z" id="Fill-9" fill="#FEFEFE" mask="url(#mask-2)"></path>
                <path d="M156.212839,55.672565 L156.212839,47.3583251 C156.728628,47.3583251 157.498573,47.3617573 158.523128,47.368393 C159.553572,47.368393 160.126897,47.3718252 160.242876,47.3784608 C160.900693,47.4262833 161.447062,47.5688353 161.881076,47.806117 C162.620441,48.2131798 162.989897,48.8746854 162.99035,49.7901762 C162.99035,50.4894364 162.793503,50.994661 162.400036,51.3067653 C162.013818,51.6190985 161.535179,51.8055831 160.965025,51.866448 C161.487383,51.9751354 161.881076,52.1346198 162.146106,52.3449012 C162.634259,52.7384639 162.878449,53.3592403 162.878449,54.2070018 L162.878449,54.9499657 C162.878449,55.031424 162.881847,55.1126535 162.888642,55.1941118 C162.90178,55.2757989 162.921714,55.3570284 162.950029,55.4384868 L163.021384,55.672565 L160.945091,55.672565 C160.877361,55.4078255 160.832737,55.0245595 160.812803,54.5223095 C160.792869,54.0207459 160.748018,53.6814126 160.680515,53.504767 C160.571558,53.2130272 160.368142,53.0096103 160.069814,52.8942872 C159.906719,52.8265579 159.659811,52.7823965 159.326598,52.7620319 L158.848412,52.7313706 L158.390386,52.7313706 L158.390386,55.672565 L156.212839,55.672565 Z M160.181489,48.996644 C159.88316,48.8817787 159.462511,48.8238883 158.919993,48.8236595 L158.390386,48.8236595 L158.390386,51.2353749 L159.235537,51.2353749 C159.744303,51.2353749 160.141168,51.1337808 160.426131,50.930135 C160.710868,50.7264892 160.85335,50.3976813 160.85335,49.9427961 C160.85335,49.4888262 160.629547,49.1730608 160.181489,48.996644 Z M164.750646,56.8834566 C163.292076,58.2947906 161.541748,59 159.500113,59 C157.390069,59 155.612558,58.2778583 154.16758,56.8326596 C152.723055,55.3876897 152,53.6100221 152,51.5003432 C152,49.3087484 152.780139,47.487377 154.340869,46.0353139 C155.805781,44.678438 157.525529,44.0002288 159.500113,44 C161.569157,44 163.335795,44.7326672 164.801613,46.1980017 C166.266525,47.6637938 167,49.4311647 167,51.5003432 C167,53.6306155 166.250215,55.4249867 164.750646,56.8834566 Z M155.093599,47.1546793 C153.899379,48.3758676 153.302496,49.8244985 153.302496,51.5003432 C153.302496,53.2370529 153.909573,54.712684 155.123952,55.926779 C156.33131,57.1411029 157.790106,57.7483792 159.500113,57.7483792 C161.201966,57.7483792 162.658044,57.1378995 163.865854,55.9167112 C165.072759,54.6888872 165.676664,53.2169171 165.676664,51.5003432 C165.676664,49.8311342 165.076836,48.3829609 163.876048,47.1546793 C162.661215,45.9067195 161.201966,45.2825109 159.500113,45.2822821 C157.776741,45.2822821 156.307978,45.9067195 155.093599,47.1546793 Z" id="Fill-10" fill="#FEFEFE" mask="url(#mask-2)"></path>
            </g>
        </g>
    </g>
</svg>